<svg width="96" height="34" viewBox="0 0 96 34" fill="none" xmlns="http://www.w3.org/2000/svg">
<path d="M13.6207 9.83151C15.8344 9.83151 17.5962 10.5543 18.9064 12C20.2391 13.423 20.9054 15.3882 20.9054 17.8955V28.9411H15.1454V18.6748C15.1454 17.4099 14.8179 16.4273 14.1628 15.727C13.5078 15.0268 12.6268 14.6767 11.52 14.6767C10.4132 14.6767 9.53224 15.0268 8.87718 15.727C8.22212 16.4273 7.89459 17.4099 7.89459 18.6748V28.9411H2.10071V10.0348H7.89459V12.5421C8.48188 11.7063 9.27247 11.0513 10.2664 10.5769C11.2602 10.08 12.3784 9.83151 13.6207 9.83151ZM27.8455 8.06963C26.829 8.06963 25.9933 7.77598 25.3382 7.18868C24.7057 6.5788 24.3895 5.83339 24.3895 4.95245C24.3895 4.04892 24.7057 3.30351 25.3382 2.71621C25.9933 2.10633 26.829 1.80139 27.8455 1.80139C28.8394 1.80139 29.6526 2.10633 30.285 2.71621C30.9401 3.30351 31.2676 4.04892 31.2676 4.95245C31.2676 5.83339 30.9401 6.5788 30.285 7.18868C29.6526 7.77598 28.8394 8.06963 27.8455 8.06963ZM30.7255 10.0348V28.9411H24.9316V10.0348H30.7255Z" fill="white"/>
<path d="M36.8775 11.2446C35.2235 9.59067 35.2235 6.909 36.8775 5.25502C38.5315 3.60103 41.2132 3.60103 42.8671 5.25502L44.8636 7.25152C46.5177 8.90554 46.5177 11.5872 44.8636 13.2411L41.8689 16.236L36.8775 11.2446Z" fill="#2776EC"/>
<path d="M42.8671 28.6286C41.2132 30.2826 38.5315 30.2826 36.8775 28.6286C35.2235 26.9747 35.2235 24.293 36.8775 22.6391L41.8689 17.6477L44.8636 20.6425C46.5177 22.2965 46.5177 24.9782 44.8636 26.6321L42.8671 28.6286Z" fill="#2776EC"/>
<path d="M51.4386 5.25502C53.0927 3.60103 55.7743 3.60103 57.4283 5.25502C59.0823 6.909 59.0823 9.59064 57.4283 11.2446L52.4369 16.236L49.4421 13.2412C47.7882 11.5872 47.7882 8.90551 49.4421 7.25156L51.4386 5.25502Z" fill="#2776EC"/>
<path d="M57.4283 22.6391C59.0823 24.293 59.0823 26.9747 57.4283 28.6286C55.7743 30.2826 53.0927 30.2826 51.4386 28.6286L49.4421 26.6321C47.7882 24.9782 47.7882 22.2965 49.4421 20.6425L52.437 17.6477L57.4283 22.6391Z" fill="#2776EC"/>
<path d="M80.3449 19.1831C80.3449 19.7252 80.311 20.2899 80.2433 20.8772H67.1307C67.2211 22.0518 67.5938 22.9553 68.2488 23.5878C68.9265 24.1977 69.751 24.5026 70.7223 24.5026C72.168 24.5026 73.1732 23.8928 73.7379 22.673H79.9044C79.5882 23.9153 79.0122 25.0335 78.1764 26.0273C77.3633 27.0212 76.3355 27.8005 75.0932 28.3652C73.8508 28.9299 72.4616 29.2123 70.9256 29.2123C69.0733 29.2123 67.4244 28.817 65.9787 28.0264C64.5331 27.2358 63.4037 26.1064 62.5905 24.6382C61.7773 23.1699 61.3707 21.4532 61.3707 19.4881C61.3707 17.5229 61.766 15.8062 62.5566 14.3379C63.3698 12.8697 64.4992 11.7403 65.9448 10.9497C67.3905 10.1591 69.0507 9.76382 70.9256 9.76382C72.7553 9.76382 74.3816 10.1478 75.8047 10.9158C77.2277 11.6838 78.3346 12.7794 79.1252 14.2024C79.9383 15.6255 80.3449 17.2857 80.3449 19.1831ZM74.4155 17.6584C74.4155 16.6645 74.0767 15.8739 73.399 15.2866C72.7214 14.6993 71.8743 14.4057 70.8579 14.4057C69.8865 14.4057 69.062 14.6881 68.3844 15.2528C67.7293 15.8175 67.3227 16.6193 67.1646 17.6584H74.4155ZM93.9388 24.0283V28.9412H90.991C88.8903 28.9412 87.2527 28.433 86.0781 27.4165C84.9035 26.3775 84.3162 24.6946 84.3162 22.3681V14.8462H82.0122V10.0349H84.3162V5.42688H90.1101V10.0349H93.9049V14.8462H90.1101V22.4358C90.1101 23.0005 90.2456 23.4071 90.5167 23.6556C90.7877 23.9041 91.2395 24.0283 91.872 24.0283H93.9388Z" fill="white"/>
</svg>
