<svg width="531" height="86" viewBox="0 0 531 86" fill="none" xmlns="http://www.w3.org/2000/svg">
<path d="M51.36 40.3039C51.36 44.2079 50.464 47.7919 48.672 51.0559C46.88 54.2559 44.128 56.8479 40.416 58.8319C36.704 60.8159 32.096 61.8079 26.592 61.8079H19.416C17.7591 61.8079 16.416 63.1511 16.416 64.8079V82.9999C16.416 84.6568 15.0729 85.9999 13.416 85.9999H3C1.34314 85.9999 0 84.6568 0 82.9999V21.6079C0 19.9511 1.34315 18.6079 3 18.6079H26.592C31.968 18.6079 36.512 19.5359 40.224 21.3919C43.936 23.2479 46.72 25.8079 48.576 29.0719C50.432 32.3359 51.36 36.0799 51.36 40.3039ZM25.344 48.7519C28.48 48.7519 30.816 48.0159 32.352 46.5439C33.888 45.0719 34.656 42.9919 34.656 40.3039C34.656 37.6159 33.888 35.5359 32.352 34.0639C30.816 32.5919 28.48 31.8559 25.344 31.8559H19.416C17.7591 31.8559 16.416 33.1991 16.416 34.8559V45.7519C16.416 47.4088 17.7591 48.7519 19.416 48.7519H25.344Z" fill="#3579DE"/>
<path d="M96.0466 85.9999C94.9533 85.9999 93.9466 85.4052 93.419 84.4476L80.9636 61.8402C80.5285 61.0504 79.6982 60.5599 78.7965 60.5599V60.5599C77.43 60.5599 76.3223 61.6677 76.3223 63.0342V82.9999C76.3223 84.6568 74.9791 85.9999 73.3223 85.9999H62.9062C61.2494 85.9999 59.9062 84.6568 59.9062 82.9999V21.6079C59.9062 19.9511 61.2494 18.6079 62.9063 18.6079H87.4583C92.7703 18.6079 97.2822 19.5359 100.994 21.3919C104.77 23.2479 107.586 25.8079 109.442 29.0719C111.298 32.2719 112.226 35.8559 112.226 39.8239C112.226 44.3039 110.946 48.3039 108.386 51.8239C106.533 54.4374 104.01 56.4863 100.816 57.9708C99.0545 58.7895 98.1918 60.9276 99.1697 62.6058L110.174 81.4895C111.339 83.4894 109.897 85.9999 107.582 85.9999H96.0466ZM76.3223 45.9439C76.3223 47.6008 77.6654 48.9439 79.3223 48.9439H86.4983C89.5063 48.9439 91.7463 48.2079 93.2183 46.7359C94.7543 45.2639 95.5223 43.1839 95.5223 40.4959C95.5223 37.9359 94.7543 35.9199 93.2183 34.4479C91.7463 32.9759 89.5063 32.2399 86.4983 32.2399H79.3223C77.6654 32.2399 76.3223 33.5831 76.3223 35.2399V45.9439Z" fill="#3579DE"/>
<path d="M184.802 51.5C186.459 51.5 187.816 52.8457 187.672 54.4963C187.169 60.2628 185.222 65.8276 181.988 70.6672C178.197 76.3407 172.809 80.7626 166.505 83.3738C160.201 85.9851 153.264 86.6683 146.572 85.3371C139.879 84.0059 133.732 80.7201 128.907 75.8952C124.082 71.0703 120.796 64.923 119.465 58.2306C118.134 51.5383 118.817 44.6015 121.428 38.2974C124.04 31.9934 128.462 26.6052 134.135 22.8143C138.975 19.5806 144.539 17.633 150.306 17.1303C151.957 16.9865 153.302 18.3431 153.302 20V29.87C153.302 31.5269 151.951 32.8454 150.315 33.111C147.693 33.537 145.18 34.5209 142.952 36.0097C139.888 38.0568 137.5 40.9664 136.09 44.3706C134.68 47.7748 134.311 51.5207 135.03 55.1345C135.749 58.7484 137.523 62.0679 140.129 64.6734C142.734 67.2789 146.054 69.0532 149.668 69.772C153.282 70.4909 157.027 70.1219 160.432 68.7119C163.836 67.3018 166.745 64.914 168.793 61.8503C170.281 59.6222 171.265 57.1094 171.691 54.4871C171.957 52.8517 173.275 51.5 174.932 51.5H184.802Z" fill="#3579DE"/>
<path d="M204.762 28.872C204.762 30.5289 203.419 31.872 201.762 31.872H191.058C189.401 31.872 188.058 33.2151 188.058 34.872V45.96C188.058 47.6169 186.715 48.96 185.058 48.96H175.506C173.849 48.96 172.506 47.6169 172.506 45.96V34.872C172.506 33.2151 171.163 31.872 169.506 31.872H158.802C157.145 31.872 155.802 30.5289 155.802 28.872V20.184C155.802 18.5271 157.145 17.184 158.802 17.184H169.506C171.163 17.184 172.506 15.8409 172.506 14.184V3C172.506 1.34315 173.849 0 175.506 0H185.058C186.715 0 188.058 1.34315 188.058 3V14.184C188.058 15.8409 189.401 17.184 191.058 17.184H201.762C203.419 17.184 204.762 18.5271 204.762 20.184V28.872Z" fill="black"/>
<path d="M216.762 51.7281C216.762 45.0721 218.202 39.1521 221.082 33.9681C223.962 28.7201 227.962 24.6561 233.082 21.7761C238.266 18.8321 244.122 17.3601 250.65 17.3601C258.65 17.3601 265.498 19.4721 271.194 23.6961C275.889 27.1777 279.301 31.7028 281.431 37.2714C282.133 39.1087 280.694 40.9761 278.727 40.9761H266.463C265.306 40.9761 264.275 40.2974 263.663 39.3162C262.408 37.3026 260.79 35.7119 258.81 34.5441C256.378 33.0721 253.594 32.3361 250.458 32.3361C245.402 32.3361 241.306 34.0961 238.17 37.6161C235.034 41.1361 233.466 45.8401 233.466 51.7281C233.466 57.6161 235.034 62.3201 238.17 65.8401C241.306 69.3601 245.402 71.1201 250.458 71.1201C253.594 71.1201 256.378 70.3841 258.81 68.9121C260.79 67.7443 262.408 66.1536 263.663 64.14C264.275 63.1588 265.306 62.4801 266.463 62.4801H278.727C280.694 62.4801 282.133 64.3475 281.431 66.1848C279.301 71.7534 275.889 76.2785 271.194 79.7601C265.498 83.9201 258.65 86.0001 250.65 86.0001C244.122 86.0001 238.266 84.5601 233.082 81.6801C227.962 78.7361 223.962 74.6721 221.082 69.4881C218.202 64.3041 216.762 58.3841 216.762 51.7281Z" fill="black"/>
<path d="M309.087 69.8481C309.087 71.505 310.43 72.8481 312.087 72.8481H327.591C329.248 72.8481 330.591 74.1913 330.591 75.8481V82.5201C330.591 84.177 329.248 85.5201 327.591 85.5201H295.671C294.014 85.5201 292.671 84.177 292.671 82.5201V21.1281C292.671 19.4713 294.014 18.1281 295.671 18.1281H306.087C307.744 18.1281 309.087 19.4713 309.087 21.1281V69.8481Z" fill="black"/>
<path d="M351.837 18.1281C353.494 18.1281 354.837 19.4713 354.837 21.1281V82.5201C354.837 84.177 353.494 85.5201 351.837 85.5201H341.421C339.764 85.5201 338.421 84.177 338.421 82.5201V21.1281C338.421 19.4713 339.764 18.1281 341.421 18.1281H351.837Z" fill="black"/>
<path d="M427.022 82.5201C427.022 84.177 425.679 85.5201 424.022 85.5201H412.22C411.212 85.5201 410.272 85.0143 409.716 84.1735L388.653 52.2839C387.013 49.8017 383.15 50.9625 383.15 53.9374V82.5201C383.15 84.177 381.807 85.5201 380.15 85.5201H369.734C368.077 85.5201 366.734 84.177 366.734 82.5201V21.1281C366.734 19.4713 368.077 18.1281 369.734 18.1281H381.532C382.542 18.1281 383.484 18.6362 384.039 19.48L405.099 51.5125C406.735 54.001 410.606 52.8425 410.606 49.8644V21.1281C410.606 19.4713 411.949 18.1281 413.606 18.1281H424.022C425.679 18.1281 427.022 19.4713 427.022 21.1281V82.5201Z" fill="black"/>
<path d="M452.337 18.1281C453.994 18.1281 455.337 19.4713 455.337 21.1281V82.5201C455.337 84.177 453.994 85.5201 452.337 85.5201H441.921C440.264 85.5201 438.921 84.177 438.921 82.5201V21.1281C438.921 19.4713 440.264 18.1281 441.921 18.1281H452.337Z" fill="black"/>
<path d="M464.45 51.7281C464.45 45.0721 465.89 39.1521 468.77 33.9681C471.65 28.7201 475.65 24.6561 480.77 21.7761C485.954 18.8321 491.81 17.3601 498.338 17.3601C506.338 17.3601 513.186 19.4721 518.882 23.6961C523.577 27.1777 526.989 31.7028 529.118 37.2714C529.821 39.1087 528.381 40.9761 526.414 40.9761H514.15C512.994 40.9761 511.962 40.2974 511.351 39.3162C510.095 37.3026 508.478 35.7119 506.498 34.5441C504.066 33.0721 501.282 32.3361 498.146 32.3361C493.09 32.3361 488.994 34.0961 485.858 37.6161C482.722 41.1361 481.154 45.8401 481.154 51.7281C481.154 57.6161 482.722 62.3201 485.858 65.8401C488.994 69.3601 493.09 71.1201 498.146 71.1201C501.282 71.1201 504.066 70.3841 506.498 68.9121C508.478 67.7443 510.095 66.1536 511.351 64.14C511.962 63.1588 512.994 62.4801 514.15 62.4801H526.414C528.381 62.4801 529.821 64.3475 529.118 66.1848C526.989 71.7534 523.577 76.2785 518.882 79.7601C513.186 83.9201 506.338 86.0001 498.338 86.0001C491.81 86.0001 485.954 84.5601 480.77 81.6801C475.65 78.7361 471.65 74.6721 468.77 69.4881C465.89 64.3041 464.45 58.3841 464.45 51.7281Z" fill="black"/>
</svg>
