<svg width="884" height="173" viewBox="0 0 884 173" fill="none" xmlns="http://www.w3.org/2000/svg">
<path fill-rule="evenodd" clip-rule="evenodd" d="M77.9072 80.3323C90.6382 75.287 166.598 9.21143 166.598 9.21143L206.862 69.0867L177.927 147.928L106.11 157.775L56.3438 110.665C56.3438 110.665 67.1864 84.5874 77.9072 80.3323Z" fill="white"/>
<path fill-rule="evenodd" clip-rule="evenodd" d="M204.853 39.9089C195.046 27.5692 201.746 15.9588 186.213 13.1626C184.751 12.9195 165.32 18.0864 163.858 17.9648L162.274 18.5727C161.969 18.9982 160.934 18.0864 160.629 18.5119C159.289 20.5786 157.949 21.2473 156.792 23.2533C153.685 33.891 158.68 45.2582 164.832 54.3763C168.244 59.4216 171.959 64.4061 174.457 70.0593C179.33 80.9402 180.122 93.7055 177.137 105.194C176.041 109.51 174.396 113.644 172.264 117.534C170.132 121.364 167.574 124.95 164.65 128.111C161.665 131.333 158.376 134.129 154.721 136.56C151.066 138.992 147.046 140.937 142.904 142.396C142.843 142.396 142.782 142.457 142.721 142.457C144.731 138.566 145.827 135.588 145.827 135.588L64.4467 124.585L63.8984 129.509C63.8984 129.57 65.7868 130.299 65.9086 130.36C73.6446 133.703 77.7868 143.369 85.0964 147.806C92.6497 152.365 99.1066 155.161 106.66 159.659C110.193 161.787 115.858 161.24 119.634 162.82C138.944 170.905 163.127 169.629 181.584 159.477C196.264 151.453 207.533 138.202 214.112 122.883C217.035 116.136 219.046 108.963 220.203 101.729C223.492 80.3323 218.497 57.0509 204.853 39.9089Z" fill="#5362BC"/>
<path fill-rule="evenodd" clip-rule="evenodd" d="M216.547 61.306C209.786 48.7838 202.11 35.2891 190.171 26.6573C185.237 23.0709 179.938 20.1531 173.664 19.2413C167.999 18.4511 162.943 19.606 158.253 22.5238C157.765 22.8277 157.643 22.8277 156.852 23.314C165.562 -3.3715 207.105 -6.41085 228.669 10.4272C233.116 13.8312 236.709 17.9648 239.511 22.8277C240.425 24.4082 240.425 25.2592 238.78 26.2926C235.613 28.3594 232.567 30.8516 229.704 33.2831C226.78 35.7754 224.161 38.6324 221.968 41.7933C218.253 47.1426 215.877 53.9507 216.486 60.5765C216.486 60.7589 216.547 60.9412 216.547 61.1236C216.547 61.1236 216.547 61.2452 216.547 61.306Z" fill="#2C3039"/>
<path d="M174.883 99.4802C174.883 74.4359 154.538 54.1331 129.442 54.1331C118.599 54.1331 108.67 58.9352 99.6548 64.6492C89.9086 70.8495 80.467 77.6576 70.9035 84.1619C63.3502 89.3288 55.736 94.4349 48.1218 99.6018C36.8528 107.2 25.6447 114.799 14.3756 122.397C12.3655 123.734 10.4162 125.072 8.40609 126.409C6.88325 127.442 5.36041 128.476 3.83756 129.509C2.86294 130.178 1.88832 130.786 0.974619 131.454C0.670051 131.697 0.304568 131.88 0 132.123C0 132.123 2.80203 131.697 7.61421 130.542C15.1675 128.658 27.9594 125.801 45.7462 126.652C77.7259 128.232 115.127 153.763 144.853 142.153C144.975 142.092 145.096 142.092 145.218 142.031C145.279 142.031 145.34 141.97 145.401 141.97C162.64 135.466 174.883 118.871 174.883 99.4802Z" fill="#3D498C"/>
<path fill-rule="evenodd" clip-rule="evenodd" d="M0.0625 132.062C1.34169 131.88 41.4229 124.95 70.0523 145.618C98.2554 165.981 124.936 186.527 177.991 161.301C134.255 179.415 111.778 158.018 82.5397 138.384C52.631 118.263 18.6412 126.834 0.0625 132.062Z" fill="#E2E8F0"/>
<path d="M338.255 122.381C348.481 122.381 356.36 120.041 361.724 115.361C367.088 110.681 369.938 104.663 369.938 96.9746C369.938 93.7988 369.435 90.9573 368.43 88.6172C367.424 86.2772 366.418 84.2714 365.244 82.5999C364.071 81.0956 362.059 79.5913 359.209 77.9198C356.192 76.2483 353.677 75.0783 351.666 74.2426C349.486 73.4068 346.134 72.0697 341.775 70.3982C333.729 67.3895 329.705 64.548 329.705 61.7065C329.705 59.7008 330.376 58.1965 332.052 57.1936C333.561 56.1907 335.405 55.6893 337.417 55.6893C344.457 55.6893 350.995 58.6979 357.03 64.3809L367.759 48.1676C358.874 41.4818 348.984 37.9717 337.919 37.9717C329.202 37.9717 322.162 40.3117 316.629 44.6576C310.93 49.1705 308.248 55.0207 308.248 62.208C308.248 69.5625 310.427 75.0783 314.785 79.0898C319.144 83.1014 325.514 86.2771 333.561 88.9515C339.261 90.9573 343.116 92.4616 345.128 93.6316C347.14 94.8017 348.313 96.1388 348.313 97.8103C348.313 99.8161 347.307 101.488 345.631 102.658C343.954 103.995 341.44 104.496 338.422 104.496C330.041 104.496 322.329 101.488 315.624 95.1359L305.062 110.346C314.283 118.369 325.347 122.381 338.255 122.381Z" fill="#2C3039"/>
<path d="M379.714 153.972H401.674V111.851L402.009 111.683C407.877 118.871 415.923 122.381 425.982 122.381C437.381 122.381 446.936 118.537 454.312 110.681C461.688 102.992 465.376 92.7959 465.376 80.2599C465.376 68.0581 461.688 58.0293 454.312 50.0063C446.936 41.9832 437.716 37.9717 426.652 37.9717C416.259 37.9717 408.044 41.4818 402.009 48.5019H401.674V39.1417H379.714V153.972ZM422.126 102.658C415.923 102.658 410.727 100.652 406.703 96.4731C402.68 92.4616 400.668 87.1129 400.668 80.427C400.668 73.7411 402.512 68.3924 406.536 64.0466C410.559 59.7008 415.588 57.5279 421.958 57.5279C427.993 57.5279 433.022 59.7008 437.046 63.8795C441.069 68.0581 443.081 73.574 443.081 80.427C443.081 86.9457 441.069 92.2944 437.213 96.4731C433.19 100.652 428.161 102.658 422.126 102.658Z" fill="#2C3039"/>
<path d="M510.347 122.381C520.74 122.381 528.954 118.704 534.989 111.015L535.325 111.182V120.877H556.279V39.1417H534.319V48.5019L533.983 48.6691C527.948 41.6489 519.902 37.9717 509.844 37.9717C498.78 37.9717 489.559 41.9832 482.183 50.0063C474.807 58.0293 471.287 68.0581 471.287 80.2599C471.287 92.7959 474.807 102.992 482.183 110.681C489.559 118.537 498.947 122.381 510.347 122.381ZM514.537 102.658C508.335 102.658 503.306 100.652 499.45 96.4731C495.427 92.4616 493.583 87.1129 493.583 80.427C493.583 73.574 495.427 68.0581 499.45 63.8795C503.473 59.7008 508.502 57.5279 514.537 57.5279C520.405 57.5279 525.266 59.7008 529.29 64.0466C533.313 68.3924 535.325 73.9083 535.325 80.427C535.325 87.1129 533.313 92.4616 529.29 96.4731C525.266 100.652 520.237 102.658 514.537 102.658Z" fill="#2C3039"/>
<path d="M570.447 120.877H592.408V83.1014C592.408 76.7498 594.084 71.7354 597.772 67.7238C601.46 63.7123 606.489 61.7065 613.195 61.7065C615.542 61.7065 617.386 61.8737 619.062 61.8737V37.9717H617.386C607.327 37.9717 599.113 42.3175 592.743 51.0091H592.408V39.1417H570.447V120.877Z" fill="#2C3039"/>
<path d="M626.115 120.877H648.075V83.1014C648.075 76.7498 649.752 71.7354 653.44 67.7238C657.128 63.7123 662.157 61.7065 668.862 61.7065C671.209 61.7065 673.053 61.8737 674.73 61.8737V37.9717H673.053C662.995 37.9717 654.781 42.3175 648.41 51.0091H648.075V39.1417H626.115V120.877Z" fill="#2C3039"/>
<path d="M718.713 122.381C731.454 122.381 741.847 118.537 749.894 110.681C757.941 102.825 762.132 92.6287 762.132 80.0927C762.132 67.7238 757.941 57.5279 749.894 49.672C741.847 41.9832 731.454 37.9717 718.713 37.9717C705.638 37.9717 695.244 41.9832 687.198 49.8391C679.151 57.8622 675.128 67.891 675.128 80.0927C675.128 92.4616 679.151 102.658 687.198 110.513C695.244 118.537 705.638 122.381 718.713 122.381ZM718.713 102.658C712.343 102.658 707.314 100.652 703.291 96.306C699.268 91.9601 697.424 86.6114 697.424 80.0927C697.424 73.7411 699.268 68.3924 703.291 64.0466C707.314 59.7008 712.343 57.5279 718.713 57.5279C724.748 57.5279 729.778 59.7008 733.801 63.8795C737.824 68.0581 739.836 73.4068 739.836 80.0927C739.836 86.7786 737.657 92.1273 733.633 96.306C729.61 100.652 724.581 102.658 718.713 102.658Z" fill="#2C3039"/>
<path d="M787.844 120.877H806.787L821.372 71.2339H821.539L836.292 120.877H855.235L883.063 39.1417H861.102L845.512 89.1187H845.176L830.424 39.1417H812.822L798.238 89.1187H798.07L782.312 39.1417H760.184L787.844 120.877Z" fill="#2C3039"/>
</svg>
