<svg width="184" height="213" viewBox="0 0 184 213" fill="none" xmlns="http://www.w3.org/2000/svg">
<rect width="184" height="213" fill="white"/>
<path opacity="0.2" d="M47.46 34.3546C45.0559 43.9976 35.2886 49.8656 25.6446 47.4615C16.005 45.0573 10.1364 35.2901 12.5411 25.6477C14.9441 16.0036 24.7108 10.1345 34.3521 12.5386C43.9956 14.9428 49.8636 24.7111 47.4594 34.3546H47.46Z" fill="#F7931A"/>
<path fill-rule="evenodd" clip-rule="evenodd" d="M35.4211 27.9089C35.6638 26.2841 34.4267 25.4106 32.7351 24.8279L33.2838 22.6269L31.9437 22.293L31.4095 24.436C31.0576 24.3483 30.6959 24.2655 30.3364 24.1834L30.8745 22.0263L29.5355 21.6924L28.9863 23.8926C28.6948 23.8262 28.4086 23.7606 28.1308 23.6915L28.1323 23.6847L26.2847 23.2233L25.9283 24.6543C25.9283 24.6543 26.9223 24.8821 26.9013 24.8962C27.444 25.0317 27.5424 25.3908 27.5256 25.6754L26.9006 28.1829C26.938 28.1924 26.9864 28.2062 27.0398 28.2275L26.8987 28.1924L26.0221 31.705C25.9557 31.8698 25.7875 32.1171 25.4082 32.0232C25.4215 32.0427 24.4343 31.7801 24.4343 31.7801L23.7692 33.3141L25.5131 33.7488C25.7099 33.7981 25.9044 33.8488 26.0967 33.899L26.0968 33.899C26.2214 33.9315 26.345 33.9638 26.4678 33.9953L25.9134 36.2219L27.2516 36.5558L27.8011 34.3532C28.1663 34.4524 28.5212 34.544 28.8684 34.6303L28.3212 36.8225L29.661 37.1564L30.2155 34.9344C32.5 35.3667 34.2184 35.1923 34.9407 33.1264C35.5234 31.4627 34.9121 30.503 33.7101 29.8768C34.5854 29.6741 35.2448 29.0983 35.4208 27.9089H35.4211ZM28.4958 32.8078L28.4958 32.8078L28.4957 32.8078C28.3979 32.7819 28.3104 32.7588 28.2358 32.7402L28.9715 29.7909C29.0627 29.8137 29.1743 29.8387 29.3006 29.8671C30.4312 30.1208 32.7482 30.6407 32.36 32.2014H32.3596C31.9793 33.7284 29.5886 33.0966 28.4958 32.8078ZM29.5278 28.4985C30.4397 28.7417 32.4274 29.272 32.7736 27.8849C33.1277 26.4657 31.1948 26.038 30.2509 25.8291C30.1448 25.8056 30.0511 25.7849 29.9747 25.7659L29.3077 28.4408C29.3708 28.4566 29.4448 28.4763 29.5278 28.4985Z" fill="#F7931A"/>
<path d="M58.51 23.488C59.0607 23.5907 59.5133 23.866 59.868 24.314C60.2227 24.762 60.4 25.2753 60.4 25.854C60.4 26.3767 60.2693 26.8387 60.008 27.24C59.756 27.632 59.3873 27.94 58.902 28.164C58.4167 28.388 57.8427 28.5 57.18 28.5H52.966V18.728H56.998C57.6607 18.728 58.23 18.8353 58.706 19.05C59.1913 19.2647 59.5553 19.5633 59.798 19.946C60.05 20.3287 60.176 20.7627 60.176 21.248C60.176 21.8173 60.022 22.2933 59.714 22.676C59.4153 23.0587 59.014 23.3293 58.51 23.488ZM54.926 22.76H56.718C57.1847 22.76 57.544 22.6573 57.796 22.452C58.048 22.2373 58.174 21.934 58.174 21.542C58.174 21.15 58.048 20.8467 57.796 20.632C57.544 20.4173 57.1847 20.31 56.718 20.31H54.926V22.76ZM56.9 26.904C57.376 26.904 57.7447 26.792 58.006 26.568C58.2767 26.344 58.412 26.0267 58.412 25.616C58.412 25.196 58.272 24.8693 57.992 24.636C57.712 24.3933 57.334 24.272 56.858 24.272H54.926V26.904H56.9ZM68.6121 18.728V20.31H66.0081V28.5H64.0481V20.31H61.4441V18.728H68.6121ZM69.5662 23.6C69.5662 22.6387 69.7808 21.78 70.2102 21.024C70.6488 20.2587 71.2415 19.666 71.9882 19.246C72.7442 18.8167 73.5888 18.602 74.5222 18.602C75.6142 18.602 76.5708 18.882 77.3922 19.442C78.2135 20.002 78.7875 20.7767 79.1142 21.766H76.8602C76.6362 21.2993 76.3188 20.9493 75.9082 20.716C75.5068 20.4827 75.0402 20.366 74.5082 20.366C73.9388 20.366 73.4302 20.5013 72.9822 20.772C72.5435 21.0333 72.1982 21.4067 71.9462 21.892C71.7035 22.3773 71.5822 22.9467 71.5822 23.6C71.5822 24.244 71.7035 24.8133 71.9462 25.308C72.1982 25.7933 72.5435 26.1713 72.9822 26.442C73.4302 26.7033 73.9388 26.834 74.5082 26.834C75.0402 26.834 75.5068 26.7173 75.9082 26.484C76.3188 26.2413 76.6362 25.8867 76.8602 25.42H79.1142C78.7875 26.4187 78.2135 27.198 77.3922 27.758C76.5802 28.3087 75.6235 28.584 74.5222 28.584C73.5888 28.584 72.7442 28.374 71.9882 27.954C71.2415 27.5247 70.6488 26.932 70.2102 26.176C69.7808 25.42 69.5662 24.5613 69.5662 23.6Z" fill="#1F1F1F"/>
<path d="M56.47 38.93C56.8433 38.9967 57.16 39.1933 57.42 39.52C57.68 39.8467 57.81 40.2167 57.81 40.63C57.81 40.9833 57.7167 41.3033 57.53 41.59C57.35 41.87 57.0867 42.0933 56.74 42.26C56.3933 42.42 55.99 42.5 55.53 42.5H52.75V35.55H55.4C55.8733 35.55 56.28 35.63 56.62 35.79C56.96 35.95 57.2167 36.1667 57.39 36.44C57.5633 36.7067 57.65 37.0067 57.65 37.34C57.65 37.74 57.5433 38.0733 57.33 38.34C57.1167 38.6067 56.83 38.8033 56.47 38.93ZM53.89 38.47H55.3C55.6733 38.47 55.9633 38.3867 56.17 38.22C56.3833 38.0467 56.49 37.8 56.49 37.48C56.49 37.1667 56.3833 36.9233 56.17 36.75C55.9633 36.57 55.6733 36.48 55.3 36.48H53.89V38.47ZM55.43 41.57C55.8167 41.57 56.12 41.4767 56.34 41.29C56.56 41.1033 56.67 40.8433 56.67 40.51C56.67 40.17 56.5533 39.9 56.32 39.7C56.0867 39.5 55.7767 39.4 55.39 39.4H53.89V41.57H55.43ZM59.6288 36.26C59.4222 36.26 59.2488 36.19 59.1088 36.05C58.9688 35.91 58.8988 35.7367 58.8988 35.53C58.8988 35.3233 58.9688 35.15 59.1088 35.01C59.2488 34.87 59.4222 34.8 59.6288 34.8C59.8288 34.8 59.9988 34.87 60.1388 35.01C60.2788 35.15 60.3488 35.3233 60.3488 35.53C60.3488 35.7367 60.2788 35.91 60.1388 36.05C59.9988 36.19 59.8288 36.26 59.6288 36.26ZM60.1888 36.99V42.5H59.0488V36.99H60.1888ZM63.0155 37.92V40.97C63.0155 41.1767 63.0622 41.3267 63.1555 41.42C63.2555 41.5067 63.4222 41.55 63.6555 41.55H64.3555V42.5H63.4555C62.9422 42.5 62.5489 42.38 62.2755 42.14C62.0022 41.9 61.8655 41.51 61.8655 40.97V37.92H61.2155V36.99H61.8655V35.62H63.0155V36.99H64.3555V37.92H63.0155ZM65.0263 39.74C65.0263 39.1733 65.1396 38.6767 65.3663 38.25C65.5996 37.8167 65.9196 37.4833 66.3263 37.25C66.7329 37.0167 67.1996 36.9 67.7263 36.9C68.3929 36.9 68.9429 37.06 69.3763 37.38C69.8163 37.6933 70.1129 38.1433 70.2663 38.73H69.0363C68.9363 38.4567 68.7763 38.2433 68.5563 38.09C68.3363 37.9367 68.0596 37.86 67.7263 37.86C67.2596 37.86 66.8863 38.0267 66.6063 38.36C66.3329 38.6867 66.1963 39.1467 66.1963 39.74C66.1963 40.3333 66.3329 40.7967 66.6063 41.13C66.8863 41.4633 67.2596 41.63 67.7263 41.63C68.3863 41.63 68.8229 41.34 69.0363 40.76H70.2663C70.1063 41.32 69.8063 41.7667 69.3663 42.1C68.9263 42.4267 68.3796 42.59 67.7263 42.59C67.1996 42.59 66.7329 42.4733 66.3263 42.24C65.9196 42 65.5996 41.6667 65.3663 41.24C65.1396 40.8067 65.0263 40.3067 65.0263 39.74ZM73.7923 42.59C73.2723 42.59 72.8023 42.4733 72.3823 42.24C71.9623 42 71.6323 41.6667 71.3923 41.24C71.1523 40.8067 71.0323 40.3067 71.0323 39.74C71.0323 39.18 71.1557 38.6833 71.4023 38.25C71.649 37.8167 71.9857 37.4833 72.4123 37.25C72.839 37.0167 73.3157 36.9 73.8423 36.9C74.369 36.9 74.8457 37.0167 75.2723 37.25C75.699 37.4833 76.0357 37.8167 76.2823 38.25C76.529 38.6833 76.6523 39.18 76.6523 39.74C76.6523 40.3 76.5257 40.7967 76.2723 41.23C76.019 41.6633 75.6723 42 75.2323 42.24C74.799 42.4733 74.319 42.59 73.7923 42.59ZM73.7923 41.6C74.0857 41.6 74.359 41.53 74.6123 41.39C74.8723 41.25 75.0823 41.04 75.2423 40.76C75.4023 40.48 75.4823 40.14 75.4823 39.74C75.4823 39.34 75.4057 39.0033 75.2523 38.73C75.099 38.45 74.8957 38.24 74.6423 38.1C74.389 37.96 74.1157 37.89 73.8223 37.89C73.529 37.89 73.2557 37.96 73.0023 38.1C72.7557 38.24 72.559 38.45 72.4123 38.73C72.2657 39.0033 72.1923 39.34 72.1923 39.74C72.1923 40.3333 72.3423 40.7933 72.6423 41.12C72.949 41.44 73.3323 41.6 73.7923 41.6ZM78.3593 36.26C78.1526 36.26 77.9793 36.19 77.8393 36.05C77.6993 35.91 77.6293 35.7367 77.6293 35.53C77.6293 35.3233 77.6993 35.15 77.8393 35.01C77.9793 34.87 78.1526 34.8 78.3593 34.8C78.5593 34.8 78.7293 34.87 78.8693 35.01C79.0093 35.15 79.0793 35.3233 79.0793 35.53C79.0793 35.7367 79.0093 35.91 78.8693 36.05C78.7293 36.19 78.5593 36.26 78.3593 36.26ZM78.9193 36.99V42.5H77.7793V36.99H78.9193ZM83.196 36.9C83.6293 36.9 84.016 36.99 84.356 37.17C84.7027 37.35 84.9727 37.6167 85.166 37.97C85.3593 38.3233 85.456 38.75 85.456 39.25V42.5H84.326V39.42C84.326 38.9267 84.2027 38.55 83.956 38.29C83.7093 38.0233 83.3727 37.89 82.946 37.89C82.5193 37.89 82.1793 38.0233 81.926 38.29C81.6793 38.55 81.556 38.9267 81.556 39.42V42.5H80.416V36.99H81.556V37.62C81.7427 37.3933 81.9793 37.2167 82.266 37.09C82.5593 36.9633 82.8693 36.9 83.196 36.9Z" fill="#999999"/>
<path d="M133 27.3333L137 31.3333H129L133 27.3333Z" fill="#43D07C"/>
<path d="M144.23 31.95C144.87 31.3967 145.373 30.9433 145.74 30.59C146.113 30.23 146.423 29.8567 146.67 29.47C146.917 29.0833 147.04 28.6967 147.04 28.31C147.04 27.91 146.943 27.5967 146.75 27.37C146.563 27.1433 146.267 27.03 145.86 27.03C145.467 27.03 145.16 27.1567 144.94 27.41C144.727 27.6567 144.613 27.99 144.6 28.41H143.5C143.52 27.65 143.747 27.07 144.18 26.67C144.62 26.2633 145.177 26.06 145.85 26.06C146.577 26.06 147.143 26.26 147.55 26.66C147.963 27.06 148.17 27.5933 148.17 28.26C148.17 28.74 148.047 29.2033 147.8 29.65C147.56 30.09 147.27 30.4867 146.93 30.84C146.597 31.1867 146.17 31.59 145.65 32.05L145.2 32.45H148.37V33.4H143.51V32.57L144.23 31.95ZM149.981 33.57C149.775 33.57 149.601 33.5 149.461 33.36C149.321 33.22 149.251 33.0467 149.251 32.84C149.251 32.6333 149.321 32.46 149.461 32.32C149.601 32.18 149.775 32.11 149.981 32.11C150.181 32.11 150.351 32.18 150.491 32.32C150.631 32.46 150.701 32.6333 150.701 32.84C150.701 33.0467 150.631 33.22 150.491 33.36C150.351 33.5 150.181 33.57 149.981 33.57ZM156.404 27.09L153.624 33.5H152.474L155.284 27.21H151.584V26.24H156.404V27.09ZM158.609 29.69C157.916 29.3433 157.569 28.7967 157.569 28.05C157.569 27.69 157.659 27.36 157.839 27.06C158.019 26.76 158.289 26.5233 158.649 26.35C159.009 26.17 159.449 26.08 159.969 26.08C160.483 26.08 160.919 26.17 161.279 26.35C161.646 26.5233 161.919 26.76 162.099 27.06C162.279 27.36 162.369 27.69 162.369 28.05C162.369 28.4233 162.273 28.7533 162.079 29.04C161.893 29.32 161.643 29.5367 161.329 29.69C161.709 29.83 162.009 30.06 162.229 30.38C162.449 30.6933 162.559 31.0633 162.559 31.49C162.559 31.9233 162.449 32.3067 162.229 32.64C162.009 32.9733 161.703 33.23 161.309 33.41C160.916 33.59 160.469 33.68 159.969 33.68C159.469 33.68 159.023 33.59 158.629 33.41C158.243 33.23 157.939 32.9733 157.719 32.64C157.499 32.3067 157.389 31.9233 157.389 31.49C157.389 31.0567 157.499 30.6833 157.719 30.37C157.939 30.0567 158.236 29.83 158.609 29.69ZM161.279 28.19C161.279 27.8167 161.163 27.53 160.929 27.33C160.696 27.13 160.376 27.03 159.969 27.03C159.569 27.03 159.253 27.13 159.019 27.33C158.786 27.53 158.669 27.82 158.669 28.2C158.669 28.5333 158.789 28.8067 159.029 29.02C159.276 29.2267 159.589 29.33 159.969 29.33C160.349 29.33 160.663 29.2233 160.909 29.01C161.156 28.7967 161.279 28.5233 161.279 28.19ZM159.969 30.19C159.529 30.19 159.169 30.3 158.889 30.52C158.616 30.7333 158.479 31.0433 158.479 31.45C158.479 31.83 158.613 32.14 158.879 32.38C159.146 32.6133 159.509 32.73 159.969 32.73C160.423 32.73 160.779 32.61 161.039 32.37C161.306 32.13 161.439 31.8233 161.439 31.45C161.439 31.05 161.303 30.74 161.029 30.52C160.763 30.3 160.409 30.19 159.969 30.19ZM163.576 27.97C163.576 27.4833 163.716 27.1033 163.996 26.83C164.283 26.55 164.65 26.41 165.096 26.41C165.543 26.41 165.906 26.55 166.186 26.83C166.473 27.1033 166.616 27.4833 166.616 27.97C166.616 28.4567 166.473 28.84 166.186 29.12C165.906 29.4 165.543 29.54 165.096 29.54C164.65 29.54 164.283 29.4 163.996 29.12C163.716 28.84 163.576 28.4567 163.576 27.97ZM169.676 26.54L165.686 33.5H164.566L168.556 26.54H169.676ZM165.096 27.1C164.676 27.1 164.466 27.39 164.466 27.97C164.466 28.5567 164.676 28.85 165.096 28.85C165.296 28.85 165.45 28.78 165.556 28.64C165.67 28.4933 165.726 28.27 165.726 27.97C165.726 27.39 165.516 27.1 165.096 27.1ZM167.646 32.06C167.646 31.5733 167.786 31.1933 168.066 30.92C168.353 30.64 168.72 30.5 169.166 30.5C169.606 30.5 169.966 30.64 170.246 30.92C170.533 31.1933 170.676 31.5733 170.676 32.06C170.676 32.5467 170.533 32.93 170.246 33.21C169.966 33.49 169.606 33.63 169.166 33.63C168.72 33.63 168.353 33.49 168.066 33.21C167.786 32.93 167.646 32.5467 167.646 32.06ZM169.156 31.19C168.736 31.19 168.526 31.48 168.526 32.06C168.526 32.64 168.736 32.93 169.156 32.93C169.576 32.93 169.786 32.64 169.786 32.06C169.786 31.48 169.576 31.19 169.156 31.19Z" fill="#1F1F1F"/>
<path d="M17.8481 133.073H12V143C12 143.552 12.4477 144 13 144H171C171.552 144 172 143.552 172 143V74.9082L165.906 82.7805C165.402 83.4317 164.37 83.2285 164.151 82.4347L161.471 72.7337C161.351 72.3002 160.957 72 160.507 72H152.423C152.153 72 151.894 72.1097 151.705 72.3041L146.154 78.0325C145.857 78.3384 145.4 78.4229 145.013 78.2431L138.903 75.3971C138.35 75.1395 137.697 75.4331 137.523 76.0179L132.553 92.6843C132.321 93.4623 131.308 93.6542 130.807 93.0149L126.143 87.0558C125.691 86.4783 124.792 86.5676 124.462 87.2227L124.243 87.658C123.963 88.2133 123.25 88.3818 122.752 88.0104L120.719 86.4953C120.235 86.1343 119.543 86.2819 119.249 86.8091L115.3 93.8721C115.079 94.2657 114.623 94.4633 114.186 94.3546L110.009 93.3171C109.487 93.1874 108.955 93.4941 108.807 94.0112L103.353 112.979C103.269 113.272 103.056 113.51 102.774 113.627L95.2694 116.734C94.7972 116.929 94.2535 116.737 94.0089 116.288L89.011 107.12C88.6249 106.412 87.6023 106.429 87.2397 107.149L85.3471 110.911C85.2337 111.136 85.0394 111.31 84.803 111.398L79.7642 113.276C79.4814 113.381 79.2613 113.608 79.1653 113.895L76.071 123.119C75.9656 123.433 75.7113 123.674 75.3921 123.764L68.4288 125.71C68.2141 125.77 68.0257 125.9 67.8933 126.079L63.4754 132.065C63.0944 132.581 62.3327 132.61 61.9136 132.124L58.9218 128.656C58.5908 128.272 58.0251 128.197 57.6051 128.48L46.7227 135.827C46.3762 136.061 45.9208 136.055 45.581 135.811L42.3501 133.498C41.9963 133.245 41.5193 133.249 41.1703 133.509L38.1196 135.783C37.9469 135.911 37.7373 135.981 37.522 135.981H30.4702C30.2007 135.981 29.9427 135.872 29.7545 135.679L23.0505 128.81C22.625 128.374 21.9119 128.416 21.5412 128.9L18.6417 132.681C18.4524 132.928 18.1591 133.073 17.8481 133.073Z" fill="url(#paint0_linear_688_4038)"/>
<path d="M12.9524 133.073H17.8482C18.1592 133.073 18.4525 132.928 18.6417 132.681L21.5413 128.9C21.9119 128.416 22.625 128.374 23.0505 128.81L29.7545 135.679C29.9427 135.872 30.2008 135.981 30.4702 135.981H37.5221C37.7374 135.981 37.947 135.911 38.1196 135.783L41.0096 133.629C41.4302 133.316 42.0216 133.381 42.3643 133.778L45.5037 137.417C45.8603 137.831 46.4826 137.882 46.9017 137.532L57.5862 128.614C58.0053 128.264 58.6276 128.315 58.9842 128.728L61.9137 132.124C62.3328 132.61 63.0945 132.581 63.4755 132.065L67.8934 126.079C68.0257 125.9 68.2142 125.77 68.4288 125.71L75.3921 123.764C75.7113 123.674 75.9656 123.433 76.071 123.119L79.1653 113.895C79.2613 113.608 79.4814 113.381 79.7643 113.276L84.803 111.398C85.0394 111.31 85.2338 111.136 85.3472 110.911L87.2397 107.149C87.6023 106.429 88.625 106.412 89.011 107.12L94.0089 116.288C94.2535 116.737 94.7972 116.929 95.2694 116.734L102.774 113.627C103.056 113.51 103.269 113.272 103.353 112.979L108.807 94.0112C108.955 93.4941 109.487 93.1874 110.009 93.3171L114.186 94.3546C114.623 94.4633 115.08 94.2657 115.3 93.8721L119.249 86.8091C119.543 86.2819 120.235 86.1343 120.719 86.4953L122.752 88.0104C123.25 88.3818 123.963 88.2133 124.243 87.658L124.462 87.2227C124.792 86.5676 125.691 86.4783 126.143 87.0558L130.807 93.0149C131.308 93.6542 132.321 93.4623 132.553 92.6843L137.523 76.0179C137.697 75.4331 138.35 75.1395 138.903 75.3971L145.013 78.243C145.4 78.4229 145.857 78.3384 146.154 78.0325L151.705 72.3041C151.894 72.1097 152.153 72 152.423 72H160.507C160.957 72 161.351 72.3002 161.471 72.7337L164.104 82.2643C164.331 83.0878 165.42 83.2652 165.897 82.5565L171.048 74.9082" stroke="#43D07C" stroke-linecap="round"/>
<rect x="12" y="168" width="160" height="1" fill="black" fill-opacity="0.06"/>
<path d="M59.7302 191.736C59.7302 192.323 59.5755 192.867 59.2662 193.368C58.9675 193.859 58.5195 194.264 57.9222 194.584C57.3355 194.893 56.6369 195.064 55.8262 195.096V196.392H54.8022V195.08C53.6715 194.984 52.7595 194.648 52.0662 194.072C51.3729 193.485 51.0049 192.691 50.9622 191.688H53.8742C53.9382 192.328 54.2475 192.739 54.8022 192.92V190.392C53.9702 190.179 53.3035 189.971 52.8022 189.768C52.3115 189.565 51.8795 189.24 51.5062 188.792C51.1329 188.344 50.9462 187.731 50.9462 186.952C50.9462 185.981 51.3035 185.203 52.0182 184.616C52.7435 184.029 53.6715 183.699 54.8022 183.624V182.328H55.8262V183.624C56.9462 183.709 57.8315 184.035 58.4822 184.6C59.1329 185.165 59.4955 185.949 59.5702 186.952H56.6422C56.5782 186.376 56.3062 186.003 55.8262 185.832V188.312C56.7115 188.557 57.3942 188.776 57.8742 188.968C58.3542 189.16 58.7809 189.48 59.1542 189.928C59.5382 190.365 59.7302 190.968 59.7302 191.736ZM53.8422 186.824C53.8422 187.091 53.9222 187.315 54.0822 187.496C54.2529 187.677 54.4929 187.837 54.8022 187.976V185.752C54.5035 185.805 54.2689 185.923 54.0982 186.104C53.9275 186.275 53.8422 186.515 53.8422 186.824ZM55.8262 192.968C56.1462 192.915 56.3969 192.787 56.5782 192.584C56.7702 192.381 56.8662 192.131 56.8662 191.832C56.8662 191.555 56.7755 191.331 56.5942 191.16C56.4235 190.979 56.1675 190.824 55.8262 190.696V192.968ZM67.2694 186.472C67.1841 186.077 67.0348 185.784 66.8214 185.592C66.6081 185.389 66.3041 185.288 65.9094 185.288C65.3014 185.288 64.8641 185.555 64.5974 186.088C64.3308 186.611 64.1921 187.443 64.1814 188.584C64.4161 188.211 64.7521 187.917 65.1894 187.704C65.6374 187.491 66.1281 187.384 66.6614 187.384C67.7068 187.384 68.5441 187.715 69.1734 188.376C69.8134 189.037 70.1334 189.96 70.1334 191.144C70.1334 191.923 69.9734 192.605 69.6534 193.192C69.3441 193.779 68.8854 194.237 68.2774 194.568C67.6801 194.899 66.9708 195.064 66.1494 195.064C64.5068 195.064 63.3654 194.552 62.7254 193.528C62.0854 192.493 61.7654 191.011 61.7654 189.08C61.7654 187.053 62.1014 185.549 62.7734 184.568C63.4561 183.576 64.5441 183.08 66.0374 183.08C66.8374 183.08 67.5094 183.24 68.0534 183.56C68.6081 183.869 69.0241 184.28 69.3014 184.792C69.5894 185.304 69.7601 185.864 69.8134 186.472H67.2694ZM66.0054 189.544C65.5468 189.544 65.1628 189.683 64.8534 189.96C64.5548 190.227 64.4054 190.611 64.4054 191.112C64.4054 191.624 64.5441 192.024 64.8214 192.312C65.1094 192.6 65.5148 192.744 66.0374 192.744C66.5068 192.744 66.8748 192.605 67.1414 192.328C67.4188 192.04 67.5574 191.651 67.5574 191.16C67.5574 190.659 67.4241 190.264 67.1574 189.976C66.8908 189.688 66.5068 189.544 66.0054 189.544ZM71.3929 185.864V183.32H75.8249V195H72.9769V185.864H71.3929ZM80.9126 192.472L79.1366 197.064H77.3926L78.3206 192.472H80.9126ZM82.2903 189C82.2903 187.165 82.6423 185.72 83.3463 184.664C84.061 183.608 85.2076 183.08 86.7863 183.08C88.365 183.08 89.5063 183.608 90.2103 184.664C90.925 185.72 91.2823 187.165 91.2823 189C91.2823 190.856 90.925 192.312 90.2103 193.368C89.5063 194.424 88.365 194.952 86.7863 194.952C85.2076 194.952 84.061 194.424 83.3463 193.368C82.6423 192.312 82.2903 190.856 82.2903 189ZM88.5943 189C88.5943 187.923 88.477 187.096 88.2423 186.52C88.0076 185.933 87.5223 185.64 86.7863 185.64C86.0503 185.64 85.565 185.933 85.3303 186.52C85.0956 187.096 84.9783 187.923 84.9783 189C84.9783 189.725 85.021 190.328 85.1063 190.808C85.1916 191.277 85.3623 191.661 85.6183 191.96C85.885 192.248 86.2743 192.392 86.7863 192.392C87.2983 192.392 87.6823 192.248 87.9383 191.96C88.205 191.661 88.381 191.277 88.4663 190.808C88.5516 190.328 88.5943 189.725 88.5943 189ZM92.6318 192.808C92.9945 192.52 93.1598 192.387 93.1278 192.408C94.1731 191.544 94.9945 190.835 95.5918 190.28C96.1998 189.725 96.7118 189.144 97.1278 188.536C97.5438 187.928 97.7518 187.336 97.7518 186.76C97.7518 186.323 97.6505 185.981 97.4478 185.736C97.2451 185.491 96.9411 185.368 96.5358 185.368C96.1305 185.368 95.8105 185.523 95.5758 185.832C95.3518 186.131 95.2398 186.557 95.2398 187.112H92.5998C92.6211 186.205 92.8131 185.448 93.1758 184.84C93.5491 184.232 94.0345 183.784 94.6318 183.496C95.2398 183.208 95.9118 183.064 96.6478 183.064C97.9171 183.064 98.8718 183.389 99.5118 184.04C100.162 184.691 100.488 185.539 100.488 186.584C100.488 187.725 100.098 188.787 99.3198 189.768C98.5411 190.739 97.5491 191.688 96.3438 192.616H100.664V194.84H92.6318V192.808ZM104.812 191.576C104.972 192.419 105.463 192.84 106.284 192.84C106.85 192.84 107.25 192.589 107.484 192.088C107.719 191.587 107.836 190.771 107.836 189.64C107.602 189.971 107.282 190.227 106.876 190.408C106.471 190.589 106.018 190.68 105.516 190.68C104.834 190.68 104.226 190.541 103.692 190.264C103.159 189.976 102.738 189.555 102.428 189C102.13 188.435 101.98 187.752 101.98 186.952C101.98 186.163 102.14 185.475 102.46 184.888C102.791 184.301 103.255 183.848 103.852 183.528C104.46 183.208 105.175 183.048 105.996 183.048C107.575 183.048 108.679 183.539 109.308 184.52C109.938 185.501 110.252 186.947 110.252 188.856C110.252 190.243 110.124 191.389 109.868 192.296C109.623 193.192 109.202 193.875 108.604 194.344C108.018 194.813 107.212 195.048 106.188 195.048C105.378 195.048 104.684 194.888 104.108 194.568C103.543 194.248 103.106 193.827 102.796 193.304C102.498 192.781 102.327 192.205 102.284 191.576H104.812ZM106.14 188.52C106.588 188.52 106.946 188.387 107.212 188.12C107.479 187.843 107.612 187.469 107.612 187C107.612 186.488 107.474 186.093 107.196 185.816C106.919 185.539 106.546 185.4 106.076 185.4C105.607 185.4 105.234 185.544 104.956 185.832C104.69 186.109 104.556 186.493 104.556 186.984C104.556 187.443 104.69 187.816 104.956 188.104C105.234 188.381 105.628 188.52 106.14 188.52ZM113.264 195.128C112.784 195.128 112.39 194.989 112.08 194.712C111.782 194.424 111.632 194.072 111.632 193.656C111.632 193.229 111.782 192.872 112.08 192.584C112.39 192.296 112.784 192.152 113.264 192.152C113.734 192.152 114.118 192.296 114.416 192.584C114.726 192.872 114.88 193.229 114.88 193.656C114.88 194.072 114.726 194.424 114.416 194.712C114.118 194.989 113.734 195.128 113.264 195.128ZM116.324 186.616C116.366 185.475 116.74 184.595 117.444 183.976C118.148 183.357 119.102 183.048 120.308 183.048C121.108 183.048 121.79 183.187 122.356 183.464C122.932 183.741 123.364 184.12 123.652 184.6C123.95 185.08 124.1 185.619 124.1 186.216C124.1 186.92 123.924 187.496 123.572 187.944C123.22 188.381 122.809 188.68 122.34 188.84V188.904C122.948 189.107 123.428 189.443 123.78 189.912C124.132 190.381 124.308 190.984 124.308 191.72C124.308 192.381 124.153 192.968 123.844 193.48C123.545 193.981 123.102 194.376 122.516 194.664C121.94 194.952 121.252 195.096 120.452 195.096C119.172 195.096 118.148 194.781 117.38 194.152C116.622 193.523 116.222 192.573 116.18 191.304H118.836C118.846 191.773 118.98 192.147 119.236 192.424C119.492 192.691 119.865 192.824 120.356 192.824C120.772 192.824 121.092 192.707 121.316 192.472C121.55 192.227 121.668 191.907 121.668 191.512C121.668 191 121.502 190.632 121.172 190.408C120.852 190.173 120.334 190.056 119.62 190.056H119.108V187.832H119.62C120.164 187.832 120.601 187.741 120.932 187.56C121.273 187.368 121.444 187.032 121.444 186.552C121.444 186.168 121.337 185.869 121.124 185.656C120.91 185.443 120.617 185.336 120.244 185.336C119.838 185.336 119.534 185.459 119.332 185.704C119.14 185.949 119.028 186.253 118.996 186.616H116.324ZM133.371 185.368L129.355 195H126.555L130.619 185.672H125.643V183.336H133.371V185.368Z" fill="#1F1F1F"/>
<defs>
<linearGradient id="paint0_linear_688_4038" x1="92" y1="72" x2="92" y2="144" gradientUnits="userSpaceOnUse">
<stop stop-color="#43D07C" stop-opacity="0.72"/>
<stop offset="1" stop-color="#43D07C" stop-opacity="0"/>
</linearGradient>
</defs>
</svg>
