<svg width="524" height="198" viewBox="0 0 524 198" fill="none" xmlns="http://www.w3.org/2000/svg">
<path fill-rule="evenodd" clip-rule="evenodd" d="M175.807 102.005C178.121 100.669 178.121 97.3305 175.807 95.995L129.542 69.2838V100.735L100.627 117.506L71.7109 100.735V134.277L42.7952 151.048V50.4217L100.627 83.9638V52.5893L19.6627 5.84481C17.3495 4.50925 14.4579 6.1787 14.4579 8.84982V189.15C14.4579 191.822 17.3495 193.491 19.6627 192.155L175.807 102.005Z" fill="#FC5598"/>
<path d="M307.08 145H284.508L246.756 87.844V145H224.184V52.336H246.756L284.508 109.756V52.336H307.08V145ZM334.794 63.688C330.834 63.688 327.578 62.544 325.026 60.256C322.562 57.88 321.33 54.976 321.33 51.544C321.33 48.024 322.562 45.12 325.026 42.832C327.578 40.456 330.834 39.268 334.794 39.268C338.666 39.268 341.834 40.456 344.298 42.832C346.85 45.12 348.126 48.024 348.126 51.544C348.126 54.976 346.85 57.88 344.298 60.256C341.834 62.544 338.666 63.688 334.794 63.688ZM346.014 71.344V145H323.442V71.344H346.014ZM357.884 108.172C357.884 100.516 359.424 93.828 362.504 88.108C365.672 82.388 370.028 77.988 375.572 74.908C381.204 71.828 387.628 70.288 394.844 70.288C404.084 70.288 411.784 72.708 417.944 77.548C424.192 82.388 428.284 89.208 430.22 98.008H406.196C404.172 92.376 400.256 89.56 394.448 89.56C390.312 89.56 387.012 91.188 384.548 94.444C382.084 97.612 380.852 102.188 380.852 108.172C380.852 114.156 382.084 118.776 384.548 122.032C387.012 125.2 390.312 126.784 394.448 126.784C400.256 126.784 404.172 123.968 406.196 118.336H430.22C428.284 126.96 424.192 133.736 417.944 138.664C411.696 143.592 403.996 146.056 394.844 146.056C387.628 146.056 381.204 144.516 375.572 141.436C370.028 138.356 365.672 133.956 362.504 128.236C359.424 122.516 357.884 115.828 357.884 108.172ZM487.569 70.552C496.017 70.552 502.793 73.368 507.897 79C513.001 84.544 515.553 92.2 515.553 101.968V145H493.113V105.004C493.113 100.076 491.837 96.248 489.285 93.52C486.733 90.792 483.301 89.428 478.989 89.428C474.677 89.428 471.245 90.792 468.693 93.52C466.141 96.248 464.865 100.076 464.865 105.004V145H442.293V47.32H464.865V81.244C467.153 77.988 470.277 75.392 474.237 73.456C478.197 71.52 482.641 70.552 487.569 70.552Z" fill="#1F1F1F"/>
</svg>
