<svg width="2026" height="424" viewBox="0 0 2026 424" fill="none" xmlns="http://www.w3.org/2000/svg">
<path d="M339.5 47.1653C339.5 47.1653 328.8 53.3399 314.7 51.4399C262.3 44.6399 222 65.3399 207.9 106.54C205.5 113.44 205.1 116.14 205.1 126.04C205 139.74 206.7 146.94 212.7 158.84C219.4 172.24 232.2 183.94 248.4 191.34C257.7 195.54 277.5 202.14 294.5 206.44C330.6 215.84 350.5 221.44 357.3 224.04C371.7 229.84 382.3 238.74 387.8 250.04C390.4 255.34 390.9 257.54 390.8 262.54C390.5 273.94 385.8 281.04 378.6 281.04C374.1 281.04 365.2 276.04 338.5 258.54C309.1 239.24 299.2 233.34 285.2 226.44C253.5 211.04 234.4 212.24 222.9 230.24C219.5 235.64 219.9 235.84 224.8 231.34C230.4 226.14 235.1 224.64 243.3 225.34C256.2 226.34 273 237.04 304.5 264.24C337.4 292.64 350.9 302.24 365.5 307.64L369 308.94H364.4C350.9 309.14 332.6 301.64 270 270.04C206.7 238.14 189.1 231.04 164.5 227.34C146.8 224.64 131.2 228.14 122.4 236.64L118.9 240.04L108.3 235.04C88.9 225.94 72.7 222.64 58.6 225.04C48.9 226.64 37 232.64 29.7 239.64L24 245.04L29.9 241.54C48.4 230.64 65.6 230.34 85.9 240.44C90.4 242.74 97.6 247.04 101.8 250.04C108 254.54 109.3 255.94 108.8 257.54C108.3 259.24 108.5 259.34 109.7 258.34C111.7 256.64 115.8 260.04 146.9 289.44C155.6 297.74 164.2 305.84 165.9 307.44C168.1 309.34 168.4 310.04 167.1 309.64C137.2 299.64 112.3 296.14 93.7 299.44C85 300.94 69.1 306.24 68.1 307.94C67.8 308.34 70.4 308.14 73.8 307.34C82.2 305.64 98.3 305.74 109.1 307.54C127.8 310.84 145.5 317.94 189.5 340.14C232.9 361.94 251.2 369.24 274.5 374.04C305.7 380.54 341.3 375.54 371 360.74C393.9 349.34 414.4 327.84 422.6 306.64C438 266.74 426.4 217.64 396 194.54C382.6 184.34 371.2 180.24 324.8 168.44C273.2 155.44 255.8 149.04 245.3 139.34C229.1 124.24 230.2 100.44 248 82.4399C258.4 71.9399 271.9 66.9399 290 66.9399C310.1 66.8399 327.1 73.0399 340.1 85.2399C349.8 94.4399 358.9 109.34 366.6 129.14L370.6 139.54L370.1 123.04C369.7 106.74 369.7 106.44 371.8 105.54C376.6 103.44 378.8 94.2399 376.3 86.9399C374.4 81.1399 371.7 78.2399 361.4 70.9399C345 61.6653 339.5 47.1653 339.5 47.1653ZM154.5 243.04C169.4 247.14 191.7 259.54 221.5 280.34C278.3 319.94 294.8 329.94 316.2 337.04L325 339.94L320.5 340.14C282.8 341.74 247.3 327.24 188 286.04C177 278.44 159.2 266.24 148.5 259.14C137.8 251.94 128.1 245.44 127 244.64C125.1 243.34 125.1 243.24 128.5 242.24C134.5 240.54 146.4 240.84 154.5 243.04Z" fill="url(#paint0_radial_420_1106)"/>
<path d="M456.932 242.24C456.932 219 461.692 198.42 471.212 180.5C481.012 162.58 494.172 148.72 510.692 138.92C527.492 128.84 545.972 123.8 566.132 123.8C584.332 123.8 600.152 127.44 613.592 134.72C627.312 141.72 638.232 150.54 646.352 161.18V127.58H694.652V359H646.352V324.56C638.232 335.48 627.172 344.58 613.172 351.86C599.172 359.14 583.212 362.78 565.292 362.78C545.412 362.78 527.212 357.74 510.692 347.66C494.172 337.3 481.012 323.02 471.212 304.82C461.692 286.34 456.932 265.48 456.932 242.24ZM646.352 243.08C646.352 227.12 642.992 213.26 636.272 201.5C629.832 189.74 621.292 180.78 610.652 174.62C600.012 168.46 588.532 165.38 576.212 165.38C563.892 165.38 552.412 168.46 541.772 174.62C531.132 180.5 522.452 189.32 515.732 201.08C509.292 212.56 506.072 226.28 506.072 242.24C506.072 258.2 509.292 272.2 515.732 284.24C522.452 296.28 531.132 305.52 541.772 311.96C552.692 318.12 564.172 321.2 576.212 321.2C588.532 321.2 600.012 318.12 610.652 311.96C621.292 305.8 629.832 296.84 636.272 285.08C642.992 273.04 646.352 259.04 646.352 243.08ZM813.4 166.64V294.74C813.4 303.42 815.36 309.72 819.28 313.64C823.48 317.28 830.48 319.1 840.28 319.1H869.68V359H831.88C810.32 359 793.8 353.96 782.32 343.88C770.84 333.8 765.1 317.42 765.1 294.74V166.64H737.8V127.58H765.1V70.04H813.4V127.58H869.68V166.64H813.4ZM997.81 362.78C979.61 362.78 963.23 359.56 948.67 353.12C934.39 346.4 923.05 337.44 914.65 326.24C906.25 314.76 901.77 302.02 901.21 288.02H950.77C951.61 297.82 956.23 306.08 964.63 312.8C973.31 319.24 984.09 322.46 996.97 322.46C1010.41 322.46 1020.77 319.94 1028.05 314.9C1035.61 309.58 1039.39 302.86 1039.39 294.74C1039.39 286.06 1035.19 279.62 1026.79 275.42C1018.67 271.22 1005.65 266.6 987.73 261.56C970.37 256.8 956.23 252.18 945.31 247.7C934.39 243.22 924.87 236.36 916.75 227.12C908.91 217.88 904.99 205.7 904.99 190.58C904.99 178.26 908.63 167.06 915.91 156.98C923.19 146.62 933.55 138.5 946.99 132.62C960.71 126.74 976.39 123.8 994.03 123.8C1020.35 123.8 1041.49 130.52 1057.45 143.96C1073.69 157.12 1082.37 175.18 1083.49 198.14H1035.61C1034.77 187.78 1030.57 179.52 1023.01 173.36C1015.45 167.2 1005.23 164.12 992.35 164.12C979.75 164.12 970.09 166.5 963.37 171.26C956.65 176.02 953.29 182.32 953.29 190.16C953.29 196.32 955.53 201.5 960.01 205.7C964.49 209.9 969.95 213.26 976.39 215.78C982.83 218.02 992.35 220.96 1004.95 224.6C1021.75 229.08 1035.47 233.7 1046.11 238.46C1057.03 242.94 1066.41 249.66 1074.25 258.62C1082.09 267.58 1086.15 279.48 1086.43 294.32C1086.43 307.48 1082.79 319.24 1075.51 329.6C1068.23 339.96 1057.87 348.08 1044.43 353.96C1031.27 359.84 1015.73 362.78 997.81 362.78ZM1122.21 243.08C1122.21 219.28 1126.97 198.42 1136.49 180.5C1146.29 162.3 1159.73 148.3 1176.81 138.5C1193.89 128.7 1213.49 123.8 1235.61 123.8C1263.61 123.8 1286.71 130.52 1304.91 143.96C1323.39 157.12 1335.85 176.02 1342.29 200.66H1290.63C1286.43 189.18 1279.71 180.22 1270.47 173.78C1261.23 167.34 1249.61 164.12 1235.61 164.12C1216.01 164.12 1200.33 171.12 1188.57 185.12C1177.09 198.84 1171.35 218.16 1171.35 243.08C1171.35 268 1177.09 287.46 1188.57 301.46C1200.33 315.46 1216.01 322.46 1235.61 322.46C1263.33 322.46 1281.67 310.28 1290.63 285.92H1342.29C1335.57 309.44 1322.97 328.2 1304.49 342.2C1286.01 355.92 1263.05 362.78 1235.61 362.78C1213.49 362.78 1193.89 357.88 1176.81 348.08C1159.73 338 1146.29 324 1136.49 306.08C1126.97 287.88 1122.21 266.88 1122.21 243.08ZM1509.7 123.8C1527.34 123.8 1543.02 127.58 1556.74 135.14C1570.74 142.7 1581.66 153.9 1589.5 168.74C1597.62 183.58 1601.68 201.5 1601.68 222.5V359H1554.22V229.64C1554.22 208.92 1549.04 193.1 1538.68 182.18C1528.32 170.98 1514.18 165.38 1496.26 165.38C1478.34 165.38 1464.06 170.98 1453.42 182.18C1443.06 193.1 1437.88 208.92 1437.88 229.64V359H1390V48.2H1437.88V154.46C1446 144.66 1456.22 137.1 1468.54 131.78C1481.14 126.46 1494.86 123.8 1509.7 123.8ZM1874.85 237.62C1874.85 246.3 1874.29 254.14 1873.17 261.14H1696.35C1697.75 279.62 1704.61 294.46 1716.93 305.66C1729.25 316.86 1744.37 322.46 1762.29 322.46C1788.05 322.46 1806.25 311.68 1816.89 290.12H1868.55C1861.55 311.4 1848.81 328.9 1830.33 342.62C1812.13 356.06 1789.45 362.78 1762.29 362.78C1740.17 362.78 1720.29 357.88 1702.65 348.08C1685.29 338 1671.57 324 1661.49 306.08C1651.69 287.88 1646.79 266.88 1646.79 243.08C1646.79 219.28 1651.55 198.42 1661.07 180.5C1670.87 162.3 1684.45 148.3 1701.81 138.5C1719.45 128.7 1739.61 123.8 1762.29 123.8C1784.13 123.8 1803.59 128.56 1820.67 138.08C1837.75 147.6 1851.05 161.04 1860.57 178.4C1870.09 195.48 1874.85 215.22 1874.85 237.62ZM1824.87 222.5C1824.59 204.86 1818.29 190.72 1805.97 180.08C1793.65 169.44 1778.39 164.12 1760.19 164.12C1743.67 164.12 1729.53 169.44 1717.77 180.08C1706.01 190.44 1699.01 204.58 1696.77 222.5H1824.87ZM1969.85 48.2V359H1921.97V48.2H1969.85Z" fill="#1F1F1F"/>
<defs>
<radialGradient id="paint0_radial_420_1106" cx="0" cy="0" r="1" gradientUnits="userSpaceOnUse" gradientTransform="translate(429 46.835) rotate(157.834) scale(437.321 402.607)">
<stop stop-color="#4388EF"/>
<stop offset="0.229167" stop-color="#1466E1"/>
<stop offset="1"/>
</radialGradient>
</defs>
</svg>
